<?xml version="1.0" encoding="utf-8"?>
<!-- Generator: Adobe Illustrator 18.1.0, SVG Export Plug-In . SVG Version: 6.00 Build 0)  -->
<svg version="1.1" id="Layer_1" xmlns="http://www.w3.org/2000/svg" xmlns:xlink="http://www.w3.org/1999/xlink" x="0px" y="0px"
	 viewBox="0 0 36.5 26.4" enable-background="new 0 0 36.5 26.4" xml:space="preserve">
<g>
	<path fill="#FFFFFF" stroke="#ABABAB" stroke-width="2" stroke-miterlimit="10" d="M5.6,1h9.3c2.6,0,4.6,2.1,4.6,4.6v3.1
		c0,2.6-2.1,4.6-4.6,4.6h-2v3.3l-5.3-3.3h-2C3.1,13.4,1,11.3,1,8.7V5.6C1,3.1,3.1,1,5.6,1z"/>
	<path fill="#FFFFFF" stroke="#ABABAB" stroke-width="2" stroke-miterlimit="10" d="M30.8,8.9h-9.3c-2.6,0-4.6,2.1-4.6,4.6v3.1
		c0,2.6,2.1,4.6,4.6,4.6h0.8v3.3l5.3-3.3h3.2c2.6,0,4.6-2.1,4.6-4.6v-3.1C35.5,11,33.4,8.9,30.8,8.9z"/>
</g>
</svg>
