<?xml version="1.0" encoding="utf-8"?>
<!-- Generator: Adobe Illustrator 18.1.0, SVG Export Plug-In . SVG Version: 6.00 Build 0)  -->
<svg version="1.1" id="Layer_1" xmlns="http://www.w3.org/2000/svg" xmlns:xlink="http://www.w3.org/1999/xlink" x="0px" y="0px"
	 viewBox="0 0 22 38" enable-background="new 0 0 22 38" xml:space="preserve">
<g>
	<path fill="#FFFFFF" stroke="#ABABAB" stroke-width="2" stroke-miterlimit="10" d="M18.7,24.6c0.9-2,1.4-4.2,1.4-6.6
		C20.1,8.8,11,1.3,11,1.3S1.8,8.8,1.8,18.1c0,2.3,0.6,4.5,1.4,6.6c-3.2,2.6-2.9,8.1,0,10.9c0,0,0-4.7,2.7-6.2
		c1.1,1.6,2.3,2.9,3.2,3.9l-1.4,3.3h6.3l-1.4-3.3c0.9-0.9,2.1-2.3,3.2-3.9c2.7,1.5,2.7,6.2,2.7,6.2C21.6,32.7,21.8,27.2,18.7,24.6z"
		/>
	<line fill="#FFFFFF" stroke="#ABABAB" stroke-width="2" stroke-miterlimit="10" x1="2.6" y1="12.3" x2="19.6" y2="12.3"/>
</g>
</svg>
