<?xml version="1.0" encoding="utf-8"?>
<!-- Generator: Adobe Illustrator 18.1.0, SVG Export Plug-In . SVG Version: 6.00 Build 0)  -->
<svg version="1.1" id="Layer_1" xmlns="http://www.w3.org/2000/svg" xmlns:xlink="http://www.w3.org/1999/xlink" x="0px" y="0px"
	 viewBox="0 0 28.1 28.2" enable-background="new 0 0 28.1 28.2" xml:space="preserve">
<g>
	<g>
		<path fill="#FFFFFF" d="M17.2,10.7l-0.3-0.2c-0.8-0.6-1.8-0.9-2.7-0.9c-1,0-1.9,0.3-2.7,0.9l-0.3,0.2H1V8c0-3.9,3.2-7,7-7h12.1
			c3.9,0,7,3.2,7,7v2.7H17.2z M21.5,7.4V6h-1.4v1.4H21.5z"/>
		<path fill="#ABABAB" d="M20.1,2c3.3,0,6,2.7,6,6v1.7H22h-4.5c-0.9-0.7-2.1-1.1-3.3-1.1c-1.2,0-2.4,0.4-3.3,1.1H2V8
			c0-3.3,2.7-6,6-6H20.1 M19.8,8.4h2.1c0.4,0,0.7-0.3,0.7-0.7V5.7c0-0.4-0.3-0.7-0.7-0.7h-2.1c-0.4,0-0.7,0.3-0.7,0.7v2.1
			C19.1,8.1,19.4,8.4,19.8,8.4 M20.1,0H8C3.6,0,0,3.6,0,8v1.7v2h2h8.9h0.6l0.5-0.4c0.6-0.5,1.4-0.7,2.2-0.7c0.8,0,1.5,0.2,2.2,0.7
			l0.5,0.4h0.6H22h4.1h2v-2V8C28.1,3.6,24.5,0,20.1,0L20.1,0z"/>
	</g>
	<g>
		<path fill="#FFFFFF" d="M8,27.2c-3.9,0-7-3.2-7-7v-9.3h9.6l-0.7,1.4c-0.3,0.6-0.5,1.3-0.5,2c0,2.6,2.1,4.7,4.7,4.7
			c2.6,0,4.7-2.1,4.7-4.7c0-0.7-0.2-1.4-0.4-2l-0.7-1.4h9.3v9.3c0,3.9-3.2,7-7,7H8z"/>
		<path fill="#ABABAB" d="M26.1,11.9v8.3c0,3.3-2.7,6-6,6H8c-3.3,0-6-2.7-6-6v-8.3h7c-0.3,0.7-0.5,1.6-0.5,2.4
			c0,3.2,2.6,5.7,5.7,5.7c3.2,0,5.7-2.6,5.7-5.7c0-0.9-0.2-1.7-0.5-2.4H26.1 M28.1,9.9h-2h-6.8h-3.2l1.3,2.9c0.2,0.5,0.4,1,0.4,1.6
			c0,2.1-1.7,3.7-3.7,3.7c-2.1,0-3.7-1.7-3.7-3.7c0-0.5,0.1-1.1,0.4-1.6l1.3-2.9H9H2H0v2v8.3c0,4.4,3.6,8,8,8h12.1c4.4,0,8-3.6,8-8
			v-8.3V9.9L28.1,9.9z"/>
	</g>
	<g>
		<path fill="#FFFFFF" d="M14.2,17.8c-1.9,0-3.4-1.5-3.4-3.4c0-1.9,1.5-3.4,3.4-3.4c1.9,0,3.4,1.5,3.4,3.4
			C17.6,16.2,16.1,17.8,14.2,17.8z"/>
		<path fill="#ABABAB" d="M14.2,12c1.3,0,2.4,1.1,2.4,2.4c0,1.3-1.1,2.4-2.4,2.4c-1.3,0-2.4-1.1-2.4-2.4C11.8,13.1,12.9,12,14.2,12
			 M14.2,10c-2.4,0-4.4,2-4.4,4.4c0,2.4,2,4.4,4.4,4.4c2.4,0,4.4-2,4.4-4.4C18.6,12,16.6,10,14.2,10L14.2,10z"/>
	</g>
</g>
</svg>
