<?xml version="1.0" encoding="utf-8"?>
<!-- Generator: Adobe Illustrator 18.1.0, SVG Export Plug-In . SVG Version: 6.00 Build 0)  -->
<svg version="1.1" id="Layer_1" xmlns="http://www.w3.org/2000/svg" xmlns:xlink="http://www.w3.org/1999/xlink" x="0px" y="0px"
	 viewBox="0 0 17.1 34.5" enable-background="new 0 0 17.1 34.5" xml:space="preserve">
<path fill="#FFFFFF" stroke="#ABABAB" stroke-width="2" stroke-miterlimit="10" d="M16.1,6.7c-1.4,0-2.9,0-3.6,0
	C11.7,6.7,11,7.5,11,8c0,0.6,0,3.7,0,3.7s4.5,0,5.1,0c-0.2,2.9-0.6,5.5-0.6,5.5h-4.5v16.3H4.3V17.3H1v-5.5h3.3c0,0,0-3.7,0-4.5
	C4.3,6.5,4.1,1,11.1,1c0.9,0,3.1,0,5,0C16.1,3.4,16.1,6,16.1,6.7z"/>
</svg>
