<?xml version="1.0" encoding="utf-8"?>
<!-- Generator: Adobe Illustrator 18.1.0, SVG Export Plug-In . SVG Version: 6.00 Build 0)  -->
<svg version="1.1" id="Layer_1" xmlns="http://www.w3.org/2000/svg" xmlns:xlink="http://www.w3.org/1999/xlink" x="0px" y="0px"
	 viewBox="0 0 28.1 35.3" enable-background="new 0 0 28.1 35.3" xml:space="preserve">
<g>
	<g>
		<g>
			<g>
				<path fill="#FFFFFF" d="M4.6,33.3c-1.4,0-2.6-1.2-2.6-2.6V4.6C2,3.1,3.2,2,4.6,2h19c1.4,0,2.6,1.1,2.6,2.6v26.1
					c0,1.4-1.2,2.6-2.6,2.6H4.6z"/>
				<path fill="#ABABAB" d="M23.6,3c0.9,0,1.6,0.7,1.6,1.6v26.1c0,0.9-0.7,1.6-1.6,1.6h-19c-0.9,0-1.6-0.7-1.6-1.6V4.6
					C3,3.7,3.7,3,4.6,3H23.6 M23.6,1h-19C2.6,1,1,2.6,1,4.6v26.1c0,2,1.6,3.6,3.6,3.6h19c2,0,3.6-1.6,3.6-3.6V4.6
					C27.1,2.6,25.5,1,23.6,1L23.6,1z"/>
			</g>
		</g>
	</g>
	<g>
		<g>
			<g>
				<path fill="#ABABAB" d="M1,28.5v2.2c0,2,1.6,3.6,3.6,3.6h19c2,0,3.6-1.6,3.6-3.6v-2.2H1z"/>
			</g>
		</g>
	</g>
	<g>
		<path fill="#ABABAB" d="M9.4,8.8H6.9c-0.3,0-0.5-0.2-0.5-0.5V5.8c0-0.3,0.2-0.5,0.5-0.5h2.5c0.3,0,0.5,0.2,0.5,0.5v2.5
			C9.9,8.6,9.7,8.8,9.4,8.8z"/>
		<path fill="#ABABAB" d="M9.4,14.5H6.9c-0.3,0-0.5-0.2-0.5-0.5v-2.5c0-0.3,0.2-0.5,0.5-0.5h2.5c0.3,0,0.5,0.2,0.5,0.5V14
			C9.9,14.3,9.7,14.5,9.4,14.5z"/>
		<path fill="#ABABAB" d="M9.4,20.2H6.9c-0.3,0-0.5-0.2-0.5-0.5v-2.5c0-0.3,0.2-0.5,0.5-0.5h2.5c0.3,0,0.5,0.2,0.5,0.5v2.5
			C9.9,20,9.7,20.2,9.4,20.2z"/>
		<path fill="#ABABAB" d="M9.4,25.9H6.9c-0.3,0-0.5-0.2-0.5-0.5v-2.5c0-0.3,0.2-0.5,0.5-0.5h2.5c0.3,0,0.5,0.2,0.5,0.5v2.5
			C9.9,25.7,9.7,25.9,9.4,25.9z"/>
	</g>
	<g>
		<path fill="#ABABAB" d="M15.4,8.8h-2.5c-0.3,0-0.5-0.2-0.5-0.5V5.8c0-0.3,0.2-0.5,0.5-0.5h2.5c0.3,0,0.5,0.2,0.5,0.5v2.5
			C15.9,8.6,15.7,8.8,15.4,8.8z"/>
		<path fill="#ABABAB" d="M15.4,14.5h-2.5c-0.3,0-0.5-0.2-0.5-0.5v-2.5c0-0.3,0.2-0.5,0.5-0.5h2.5c0.3,0,0.5,0.2,0.5,0.5V14
			C15.9,14.3,15.7,14.5,15.4,14.5z"/>
		<path fill="#ABABAB" d="M15.4,20.2h-2.5c-0.3,0-0.5-0.2-0.5-0.5v-2.5c0-0.3,0.2-0.5,0.5-0.5h2.5c0.3,0,0.5,0.2,0.5,0.5v2.5
			C15.9,20,15.7,20.2,15.4,20.2z"/>
		<path fill="#ABABAB" d="M15.4,25.9h-2.5c-0.3,0-0.5-0.2-0.5-0.5v-2.5c0-0.3,0.2-0.5,0.5-0.5h2.5c0.3,0,0.5,0.2,0.5,0.5v2.5
			C15.9,25.7,15.7,25.9,15.4,25.9z"/>
	</g>
	<g>
		<path fill="#ABABAB" d="M21.4,8.8h-2.5c-0.3,0-0.5-0.2-0.5-0.5V5.8c0-0.3,0.2-0.5,0.5-0.5h2.5c0.3,0,0.5,0.2,0.5,0.5v2.5
			C21.9,8.6,21.7,8.8,21.4,8.8z"/>
		<path fill="#ABABAB" d="M21.4,14.5h-2.5c-0.3,0-0.5-0.2-0.5-0.5v-2.5c0-0.3,0.2-0.5,0.5-0.5h2.5c0.3,0,0.5,0.2,0.5,0.5V14
			C21.9,14.3,21.7,14.5,21.4,14.5z"/>
		<path fill="#ABABAB" d="M21.4,20.2h-2.5c-0.3,0-0.5-0.2-0.5-0.5v-2.5c0-0.3,0.2-0.5,0.5-0.5h2.5c0.3,0,0.5,0.2,0.5,0.5v2.5
			C21.9,20,21.7,20.2,21.4,20.2z"/>
		<path fill="#ABABAB" d="M21.4,25.9h-2.5c-0.3,0-0.5-0.2-0.5-0.5v-2.5c0-0.3,0.2-0.5,0.5-0.5h2.5c0.3,0,0.5,0.2,0.5,0.5v2.5
			C21.9,25.7,21.7,25.9,21.4,25.9z"/>
	</g>
	<circle fill="#FFFFFF" cx="14.1" cy="31.3" r="1.4"/>
</g>
</svg>
