<?xml version="1.0" encoding="utf-8"?>
<!-- Generator: Adobe Illustrator 18.1.0, SVG Export Plug-In . SVG Version: 6.00 Build 0)  -->
<svg version="1.1" id="Layer_1" xmlns="http://www.w3.org/2000/svg" xmlns:xlink="http://www.w3.org/1999/xlink" x="0px" y="0px"
	 viewBox="0 0 28.2 23.7" enable-background="new 0 0 28.2 23.7" xml:space="preserve">
<g>
	<path fill="#FFFFFF" d="M9.6,22.7c-2.9,0-5.7-0.8-8.2-2.4c-0.4-0.3-0.6-0.7-0.4-1.2c0.1-0.4,0.5-0.7,0.9-0.7c0,0,0.1,0,0.1,0
		c0.3,0,0.7,0.1,1.1,0.1c1.3,0,2.5-0.3,3.6-0.8c-1.4-0.7-2.5-2-3-3.5c-0.1-0.3,0-0.6,0.1-0.9C2.7,12.3,2,10.7,2,9
		c0-0.4,0.2-0.7,0.5-0.9c0,0,0.1-0.1,0.1-0.1C2.2,7.2,2,6.3,2,5.4c0-1.1,0.3-2.1,0.8-3C3,2.1,3.3,1.9,3.6,1.9c0,0,0.1,0,0.1,0
		C4,1.9,4.3,2,4.5,2.3C6.6,4.9,9.6,6.5,12.8,7c0,0,0,0,0,0c0-3.3,2.7-6,6-6c1.4,0,2.9,0.5,3.9,1.5c0.8-0.2,1.6-0.5,2.3-1
		c0.2-0.1,0.3-0.1,0.5-0.1c0.2,0,0.4,0.1,0.6,0.2c0.3,0.3,0.5,0.7,0.3,1.1c-0.1,0.2-0.2,0.4-0.3,0.7c0.3,0,0.6,0.1,0.7,0.4
		c0.3,0.3,0.3,0.8,0.1,1.2c-0.6,1-1.4,1.8-2.3,2.5c0,0.1,0,0.1,0,0.2C24.8,15,19.1,22.7,9.6,22.7z"/>
	<path fill="#ABABAB" d="M18.8,2c1.4,0,2.7,0.6,3.6,1.6c1.1-0.2,2.2-0.6,3.2-1.2c-0.4,1.2-1.2,2.1-2.2,2.8c1-0.1,2-0.4,2.9-0.8
		c-0.7,1-1.5,1.9-2.5,2.6c0,0.2,0,0.4,0,0.6c0,6.6-5,14.2-14.2,14.2c-2.8,0-5.4-0.8-7.6-2.2c0.4,0,0.8,0.1,1.2,0.1
		c2.3,0,4.5-0.8,6.2-2.1c-2.2,0-4-1.5-4.6-3.5C5,14,5.3,14,5.7,14C6.1,14,6.5,14,7,13.9C4.7,13.4,3,11.4,3,9c0,0,0,0,0-0.1
		c0.7,0.4,1.4,0.6,2.3,0.6C3.9,8.7,3,7.1,3,5.4c0-0.9,0.2-1.8,0.7-2.5c2.5,3,6.1,5,10.3,5.2c-0.1-0.4-0.1-0.7-0.1-1.1
		C13.8,4.2,16,2,18.8,2 M25.6,2.4L25.6,2.4 M18.8,0c-3.4,0-6.3,2.5-6.9,5.8C9.3,5.2,7,3.7,5.2,1.6c-0.4-0.5-1-0.7-1.6-0.7
		c-0.1,0-0.1,0-0.2,0C2.9,1,2.3,1.3,2,1.9C1.3,3,1,4.2,1,5.4C1,6.2,1.1,7,1.4,7.7C1.1,8,1,8.5,1,8.9V9c0,1.8,0.7,3.4,1.8,4.6
		c-0.1,0.3,0,0.6,0.1,0.9c0.4,1.1,1,2.1,1.8,2.9c-0.5,0.1-0.9,0.1-1.4,0.1c-0.3,0-0.6,0-0.9-0.1c-0.1,0-0.2,0-0.2,0
		c-0.8,0-1.6,0.5-1.9,1.3c-0.3,0.9,0,1.9,0.8,2.4c2.6,1.7,5.6,2.6,8.7,2.6c4.7,0,9-1.9,12-5.3c2.6-2.9,4.1-6.7,4.1-10.5
		c0.8-0.7,1.5-1.5,2.1-2.4c0.5-0.7,0.4-1.7-0.1-2.4c-0.1-0.1-0.2-0.2-0.2-0.2c0-0.1,0-0.3,0-0.4c0-1.1-0.9-2-2-2c0,0,0,0,0,0
		c0,0,0,0-0.1,0c-0.4,0-0.7,0.1-1,0.3c-0.5,0.3-1,0.5-1.6,0.7C21.7,0.5,20.3,0,18.8,0L18.8,0z"/>
</g>
</svg>
