<?xml version="1.0" encoding="utf-8"?>
<!-- Generator: Adobe Illustrator 18.1.0, SVG Export Plug-In . SVG Version: 6.00 Build 0)  -->
<svg version="1.1" id="Layer_1" xmlns="http://www.w3.org/2000/svg" xmlns:xlink="http://www.w3.org/1999/xlink" x="0px" y="0px"
	 viewBox="0 0 100 38.7" style="enable-background:new 0 0 100 38.7;" xml:space="preserve">
<style type="text/css">
	.st0{fill:#EC1C24;}
</style>
<g>
	<g>
		<path class="st0" d="M34.1,14.9c-0.6-1.6-1.1-2.9-1.4-3.8l0-0.1l1.9-0.3l0.2-2.1l1.5,1.9l0,4L34.1,14.9L34.1,14.9z"/>
		<polygon class="st0" points="28.8,4.2 34.5,6.4 34.2,10.4 31.6,10.8 		"/>
		<path class="st0" d="M6.1,14.7l0-4l1.5-1.9l0.2,2.1l1.9,0.3l0,0.1c-0.3,0.9-0.8,2.2-1.4,3.8l0,0L6.1,14.7z"/>
		<polygon class="st0" points="8.2,10.4 7.9,6.4 13.5,4.2 10.8,10.8 		"/>
		<path class="st0" d="M17.7,2.6L18.6,0h5.1l0.9,2.6H17.7z M23.1,0.9c-0.2,0-0.4,0.2-0.4,0.4c0,0.2,0.2,0.4,0.4,0.4
			c0.2,0,0.4-0.2,0.4-0.4C23.5,1.1,23.3,0.9,23.1,0.9z M19.3,0.9c-0.2,0-0.4,0.2-0.4,0.4c0,0.2,0.2,0.4,0.4,0.4
			c0.2,0,0.4-0.2,0.4-0.4C19.7,1.1,19.5,0.9,19.3,0.9z"/>
		<polygon class="st0" points="11,14.4 11.2,10.9 14.2,3.9 17.5,3 24.9,3 28.2,3.9 31.1,10.9 31.5,14.4 21.2,25 		"/>
		<polygon class="st0" points="34.2,38.7 21.6,25.4 31.6,14.9 32.9,19.2 32.5,21 33.5,22.6 33.9,22.7 31.7,23.9 30,28.7 36.4,31 
			38.7,38.7 		"/>
		<polygon class="st0" points="3.8,38.7 6.1,30.9 12.4,28.7 10.7,23.9 8.5,22.7 8.9,22.6 9.9,21 9.5,19.4 10.9,14.9 20.9,25.4 
			8.3,38.7 		"/>
		<polygon class="st0" points="3.5,29.6 3,28 4.6,23.9 7.9,22.9 10.3,24.3 11.8,28.4 5.8,30.5 		"/>
		<polygon class="st0" points="30.6,28.4 32.1,24.3 34.5,22.9 37.7,23.9 39.4,28 38.9,29.6 36.6,30.5 		"/>
		<polygon class="st0" points="38.1,23.5 33.8,22.1 33,20.9 34.3,15.4 36.8,15.2 36.7,11.1 37.9,10.9 42,15.7 42.4,26.1 39.7,27.5 
					"/>
		<polygon class="st0" points="4.3,23.5 8.6,22.1 9.4,20.9 8.1,15.4 5.6,15.2 5.6,11.1 4.5,10.9 0.4,15.7 0,26.1 2.6,27.5 		"/>
	</g>
	<g>
		
			<rect x="45.9" y="28.4" transform="matrix(0.9986 -5.233151e-02 5.233151e-02 0.9986 -1.6898 2.51)" class="st0" width="2.3" height="10.3"/>
		
			<rect x="67.9" y="27.2" transform="matrix(0.9986 -5.233151e-02 5.233151e-02 0.9986 -1.5995 3.6568)" class="st0" width="2.3" height="10.3"/>
		
			<rect x="78.5" y="15.4" transform="matrix(0.9986 -5.235367e-02 5.235367e-02 0.9986 -0.967 4.1881)" class="st0" width="1.8" height="10.3"/>
		
			<rect x="92.4" y="30.2" transform="matrix(0.9986 -5.233765e-02 5.233765e-02 0.9986 -1.6076 5.013)" class="st0" width="5.1" height="6"/>
		<g>
			<path class="st0" d="M67.5,32.4c-0.2-3-2.7-5.2-5.6-5.1c-1.4,0.1-2.6,0.7-3.5,1.6l8,7.2C67.1,35.1,67.5,33.8,67.5,32.4z"/>
			<path class="st0" d="M56.8,33c0.2,3,2.7,5.2,5.6,5.1c1.4-0.1,2.6-0.7,3.5-1.6l-8-7.2C57.2,30.3,56.7,31.6,56.8,33z"/>
		</g>
		<g>
			<path class="st0" d="M89.3,31.3c-0.2-3-2.7-5.2-5.6-5.1c-1.4,0.1-2.6,0.7-3.5,1.6l8,7.2C88.9,34,89.3,32.7,89.3,31.3z"/>
			<path class="st0" d="M78.6,31.9c0.2,3,2.7,5.2,5.6,5.1c1.4-0.1,2.6-0.7,3.5-1.6l-8-7.2C78.9,29.2,78.5,30.5,78.6,31.9z"/>
		</g>
		<g>
			<path class="st0" d="M66.9,21.2c-0.2-3-2.7-5.2-5.6-5.1c-1.4,0.1-2.6,0.7-3.5,1.6l8,7.2C66.5,23.9,67,22.6,66.9,21.2z"/>
			<path class="st0" d="M56.2,21.8c0.2,3,2.7,5.2,5.6,5.1c1.4-0.1,2.6-0.7,3.5-1.6l-8-7.2C56.6,19.1,56.1,20.4,56.2,21.8z"/>
		</g>
		<g>
			<path class="st0" d="M99.9,19.5c-0.2-3-2.7-5.2-5.6-5.1c-1.4,0.1-2.6,0.7-3.5,1.6l8,7.2C99.5,22.2,100,20.9,99.9,19.5z"/>
			<path class="st0" d="M89.2,20c0.2,3,2.7,5.2,5.6,5.1c1.4-0.1,2.6-0.7,3.5-1.6l-8-7.2C89.6,17.3,89.1,18.6,89.2,20z"/>
		</g>
		
			<rect x="89.4" y="25.9" transform="matrix(0.9986 -5.233058e-02 5.233058e-02 0.9986 -1.3258 4.9901)" class="st0" width="10.6" height="3.9"/>
		<polygon class="st0" points="56,26.4 55.5,16.6 50.9,21.8 		"/>
		<polygon class="st0" points="50.6,22.1 50.5,22.1 45.1,17.2 45.6,27.5 55.9,27 50.6,22.1 		"/>
		<path class="st0" d="M54.3,34l-5.5,0.3l0.2,4.3l8.3-0.4l-0.1-1.5C57.1,35.1,55.8,33.9,54.3,34z"/>
		<path class="st0" d="M53.6,28l-5.2,0.3l0.3,5.5l5.2-0.3c1.5-0.1,2.7-1.4,2.6-2.9C56.4,29.1,55.1,27.9,53.6,28z"/>
		<path class="st0" d="M76.1,32.2l-5.5,0.3l0.3,4.9l5.5-0.3c1.4-0.1,2.4-1.2,2.3-2.6C78.7,33.2,77.5,32.2,76.1,32.2z"/>
		<path class="st0" d="M75.9,26.9l-5.5,0.3l0.3,4.9l5.5-0.3c1.4-0.1,2.4-1.2,2.3-2.6C78.4,27.8,77.2,26.8,75.9,26.9z"/>
		<path class="st0" d="M83.4,15.2l-2.9,0.1l0.5,10.3l2.9-0.1c2.8-0.1,5-2.6,4.9-5.4S86.3,15,83.4,15.2z"/>
		<g>
			<polygon class="st0" points="77.7,22.1 77.3,15.5 72.2,15.8 72.3,17.6 			"/>
			<polygon class="st0" points="77.7,22.7 69.6,15.9 67,16 67.3,22.2 73.1,26.1 77.9,25.8 			"/>
			<polyline class="st0" points="70.1,26.2 70,24.5 67.4,22.8 67.6,26.3 			"/>
		</g>
	</g>
</g>
</svg>
