<?xml version="1.0" encoding="utf-8"?>
<!-- Generator: Adobe Illustrator 18.1.0, SVG Export Plug-In . SVG Version: 6.00 Build 0)  -->
<svg version="1.1" id="Layer_1" xmlns="http://www.w3.org/2000/svg" xmlns:xlink="http://www.w3.org/1999/xlink" x="0px" y="0px"
	 viewBox="0 0 100 91.5" style="enable-background:new 0 0 100 91.5;" xml:space="preserve">
<style type="text/css">
	.st0{fill:#4C4C4E;}
	.st1{fill:#404041;}
	.st2{fill:#323132;}
	.st3{fill:#B3B3B3;}
	.st4{fill:#FFFFFF;}
</style>
<g>
	<path class="st0" d="M100,30.5L96.7,23L87.9,7.5l-3.1,1.3l-0.3,3H72l-1.9-2.2L52.4,4.7l-2,0.6l-0.6-1.4L46.1,1l-9,2.5L33.9,10l0,0
		l-8.7,2.5l-8.6,13.5l0,0l0,0.1l0,0l0,0l0,0l-4.2,2.3c0.1-0.1-3.3-1.5-3.3-1.5l-1.5,0.4L0,41.6l2.6,19l4.8,1l0.3,0.8l4.5,1.8
		L8.1,89.6h8.9h3.7l25.4-25l26.4,25H87h1.7L76.3,51.8l2.2,4.5l2.7,1.8l3.1,0.6l9-4.2l0.6-1.3l4.8-0.5L100,30.5z M70.5,34.2l-0.7-6.7
		l3.8-1.8l-2.5,6l2,3.3l2.9,2.9h0c-0.9,0.5-2.5,1.4-3.6,2.1L70.5,34.2z"/>
	<g>
		<polygon points="69.7,27.5 76.5,24.3 73.8,13.2 72,11.8 70.1,9.6 61.3,13.4 57.3,14.6 58.9,16 		"/>
		<path class="st1" d="M75.3,21.5l-4-1.3v-8.4h13.4c0,0,0.5,8.2,0,8.1C84.2,19.8,75.3,21.5,75.3,21.5z"/>
		<polygon class="st1" points="70.1,9.6 70.1,19.9 58.9,16 52.4,4.7 		"/>
		<path d="M98.7,52.8l-5.4,0.5c0,0-5.8-1.9-5.6-2.3c0.2-0.3,3.7-3.1,3.7-3.1l5.3,2.1L98.7,52.8z"/>
		<polygon class="st1" points="33.3,52.4 72.5,89.6 87,89.6 59.7,24.2 		"/>
		<polygon class="st2" points="16.9,89.6 20.7,89.6 46.1,64.6 33.3,52.4 		"/>
		<polygon class="st2" points="87,89.6 88.7,89.6 70.5,34.2 69.7,27.5 58.9,16 59.7,24.3 		"/>
		<polygon points="73.1,35 76,37.9 86.6,40.6 86.3,37.9 		"/>
		<polygon class="st2" points="78.4,56.4 81.2,58.2 91.8,52.8 92.4,51.1 91.4,50 		"/>
		<polygon points="81.2,58.2 84.2,58.8 93.2,54.6 91.8,52.8 		"/>
		<path d="M10.9,34.8c0.4,0,6.4-2.6,6.4-2.6l-1.4,16.6L14.1,49L10.9,34.8z"/>
		<polygon points="93.2,54.6 94,52.8 92.4,51.1 91.8,52.8 		"/>
		<polygon class="st2" points="96.7,23 100,30.5 98.7,52.8 96.7,50 		"/>
		<polyline class="st1" points="16.6,26.1 10.7,29.4 10.7,33.5 14.5,35.4 16.9,34.2 		"/>
		<path d="M2.6,60.6l5.1,1l7.1-13.7l0.1-6l-6.1,3.5c0,0-4.6,5.3-4.3,5.6C4.6,51.4,2.6,60.6,2.6,60.6z"/>
		<path d="M12.4,28.5c0.1-0.1-3.3-1.5-3.3-1.5l-1,7.3l2.7-0.7v-4.1L12.4,28.5z"/>
		<polygon class="st1" points="12.4,33 8.1,34.2 9.1,26.9 7.6,27.3 0,41.6 2.6,60.6 6,60.6 7,50.6 13.8,45.2 14.8,42 		"/>
		<polygon class="st1" points="8.9,51.8 14.8,47.3 12.4,62.4 7,60.6 		"/>
		<polygon class="st2" points="7,60.6 7.6,62.4 12.1,64.2 12.4,62.4 		"/>
		<g>
			<polygon class="st1" points="47.2,6.4 33.9,10 37,3.5 46.1,1 			"/>
		</g>
		<polygon class="st2" points="46.1,1 49.8,3.9 50.5,5.5 47.2,6.4 		"/>
		<path class="st1" d="M91.4,50l-13,6.4L71,40.8c0,0,5.3-3.2,5.6-3.2c0.3,0,11.5,2.8,11.5,2.8L91.4,50z"/>
		<ellipse transform="matrix(0.9663 0.2573 -0.2573 0.9663 2.8783 -11.1507)" class="st3" cx="44" cy="5.4" rx="0.8" ry="0.8"/>
		<ellipse transform="matrix(0.9664 0.2571 -0.2571 0.9664 3.1835 -9.2125)" class="st3" cx="36.8" cy="7.6" rx="0.8" ry="0.8"/>
		<ellipse transform="matrix(0.9663 0.2573 -0.2573 0.9663 2.8503 -11.0886)" class="st4" cx="43.8" cy="5.3" rx="0.8" ry="0.8"/>
		<ellipse transform="matrix(0.9663 0.2573 -0.2573 0.9663 3.1602 -9.1598)" class="st4" cx="36.6" cy="7.5" rx="0.8" ry="0.8"/>
		<polygon class="st0" points="58.9,15.9 58.8,15.9 52.4,4.7 25.2,12.5 16.6,26.1 16.6,26.1 16.6,26.1 16.6,26.1 16.6,26.1 
			16.9,34.2 33.3,52.4 59.7,24.2 		"/>
		<polygon class="st1" points="33.3,52.4 16.9,89.6 8.1,89.6 16.9,34.2 		"/>
		<path class="st0" d="M87.9,7.5l-3.1,1.3l-0.9,9.3c0,0-8.1,3.2-8.5,3.3L71,31.6l2,3.3l12.6,3.1L88.4,50h8.3V23L87.9,7.5z"/>
	</g>
</g>
</svg>
