<?xml version="1.0" encoding="utf-8"?>
<!-- Generator: Adobe Illustrator 18.1.0, SVG Export Plug-In . SVG Version: 6.00 Build 0)  -->
<svg version="1.1" id="Layer_1" xmlns="http://www.w3.org/2000/svg" xmlns:xlink="http://www.w3.org/1999/xlink" x="0px" y="0px"
	 viewBox="0 0 100 91.4" style="enable-background:new 0 0 100 91.4;" xml:space="preserve">
<style type="text/css">
	.st0{fill:#333333;}
</style>
<g>
	<path class="st0" d="M80.5,35.2c-1.4-3.7-2.5-6.7-3.3-8.9l-0.1-0.1l4.5-0.6l0.4-5l3.4,4.6l0,9.5L80.5,35.2L80.5,35.2z"/>
	<polygon class="st0" points="68.1,9.8 81.4,15.2 80.6,24.6 74.6,25.4 	"/>
	<path class="st0" d="M14.4,34.7l0-9.5l3.4-4.6l0.4,5l4.5,0.6l-0.1,0.1c-0.8,2.1-1.9,5.2-3.3,8.9l0,0.1L14.4,34.7z"/>
	<polygon class="st0" points="19.4,24.6 18.6,15.2 31.9,9.8 25.4,25.4 	"/>
	<path class="st0" d="M41.7,6.1L44,0h12l2.2,6.1H41.7z M54.5,2.1c-0.5,0-0.9,0.4-0.9,0.9c0,0.5,0.4,1,0.9,1c0.5,0,1-0.4,1-1
		C55.4,2.6,55,2.1,54.5,2.1z M45.5,2.1c-0.5,0-1,0.4-1,0.9c0,0.5,0.4,1,1,1c0.5,0,1-0.4,1-1C46.5,2.6,46.1,2.1,45.5,2.1z"/>
	<polygon class="st0" points="26,33.9 26.5,25.7 33.4,9.3 41.3,7.1 58.7,7.1 66.6,9.3 73.5,25.8 74.2,33.9 50.1,58.9 	"/>
	<polygon class="st0" points="80.8,91.4 50.9,59.9 74.6,35.1 77.6,45.4 76.6,49.4 78.9,53.2 79.9,53.5 74.8,56.4 70.8,67.8 
		85.9,73.1 91.4,91.4 	"/>
	<polygon class="st0" points="8.9,91.4 14.4,73 29.2,67.8 25.2,56.4 20.1,53.5 21.1,53.2 23.4,49.4 22.5,45.8 25.7,35.1 49.3,59.9 
		19.5,91.4 	"/>
	<polygon class="st0" points="8.3,69.9 7,66.1 10.9,56.5 18.6,54 24.3,57.2 27.7,67.1 13.8,72 	"/>
	<polygon class="st0" points="72.3,67.1 75.7,57.2 81.4,54 89.1,56.5 93,66.1 91.7,69.9 86.3,72 	"/>
	<polygon class="st0" points="89.9,55.5 79.7,52.2 77.8,49.2 81,36.4 86.7,35.8 86.7,26.1 89.3,25.6 99,37.1 100,61.6 93.8,64.9 	
		"/>
	<polygon class="st0" points="10.1,55.5 20.3,52.2 22.2,49.2 19,36.4 13.3,35.8 13.3,26.1 10.7,25.6 1,37.1 0,61.6 6.2,64.9 	"/>
</g>
</svg>
