<?xml version="1.0" encoding="utf-8"?>
<!-- Generator: Adobe Illustrator 18.1.0, SVG Export Plug-In . SVG Version: 6.00 Build 0)  -->
<svg version="1.1" id="Layer_1" xmlns="http://www.w3.org/2000/svg" xmlns:xlink="http://www.w3.org/1999/xlink" x="0px" y="0px"
	 viewBox="0 0 100 91.5" style="enable-background:new 0 0 100 91.5;" xml:space="preserve">
<style type="text/css">
	.st0{fill:none;stroke:#333333;stroke-width:6.9929;stroke-linecap:round;stroke-miterlimit:10;}
	.st1{fill:#333333;}
</style>
<g>
	<g>
		<path class="st0" d="M82.1,26.1"/>
	</g>
	<g>
		<path class="st1" d="M80.8,35.5c-0.3,0-0.5-0.2-0.6-0.4c-1.3-3.3-2.3-6.1-3.1-8.2c-0.1-0.3,0.1-0.7,0.4-0.8
			c0.3-0.1,0.7,0.1,0.8,0.4c0.7,2.1,1.8,4.9,3,8.2c0.1,0.3,0,0.7-0.4,0.8C81,35.5,80.9,35.5,80.8,35.5z"/>
	</g>
	<g>
		<path class="st0" d="M85,34.3"/>
	</g>
	<g>
		<path class="st1" d="M85,26.1c-0.2,0-0.4-0.1-0.5-0.3l-2.6-3.4c-0.2-0.3-0.2-0.7,0.1-0.9c0.3-0.2,0.7-0.2,0.9,0.1l2.6,3.4
			c0.2,0.3,0.2,0.7-0.1,0.9C85.3,26,85.1,26.1,85,26.1z"/>
	</g>
	<g>
		<path class="st1" d="M74.8,25.5c-0.3,0-0.6-0.2-0.6-0.5c0-0.3,0.2-0.7,0.5-0.7l4.8-0.6l0.6-7.7l-11.5-4.6
			c-0.3-0.1-0.5-0.5-0.4-0.8c0.1-0.3,0.5-0.5,0.8-0.4l12.4,5l-0.8,9.6L74.8,25.5C74.9,25.5,74.9,25.5,74.8,25.5z"/>
	</g>
	<g>
		<path class="st1" d="M15,26.1c-0.1,0-0.3,0-0.4-0.1c-0.3-0.2-0.3-0.6-0.1-0.9l2.6-3.4c0.2-0.3,0.6-0.3,0.9-0.1
			c0.3,0.2,0.3,0.6,0.1,0.9l-2.6,3.4C15.4,26,15.2,26.1,15,26.1z"/>
	</g>
	<g>
		<path class="st0" d="M15,34.3"/>
	</g>
	<g>
		<path class="st1" d="M19.2,35.5c-0.1,0-0.2,0-0.2,0c-0.3-0.1-0.5-0.5-0.4-0.8c1.3-3.3,2.3-6.1,3-8.2c0.1-0.3,0.5-0.5,0.8-0.4
			c0.3,0.1,0.5,0.5,0.4,0.8c-0.7,2.1-1.8,4.9-3.1,8.2C19.7,35.3,19.4,35.5,19.2,35.5z"/>
	</g>
	<g>
		<path class="st0" d="M17.9,26.1"/>
	</g>
	<g>
		<path class="st1" d="M25.2,25.5C25.1,25.5,25.1,25.5,25.2,25.5l-5.9-0.8l-0.8-9.6l12.4-5c0.3-0.1,0.7,0,0.8,0.4
			c0.1,0.3,0,0.7-0.4,0.8L19.8,16l0.6,7.7l4.8,0.6c0.3,0,0.6,0.4,0.5,0.7C25.8,25.3,25.5,25.5,25.2,25.5z"/>
	</g>
	<g>
		<path class="st1" d="M41.7,6.4c-0.1,0-0.1,0-0.2,0c-0.3-0.1-0.5-0.5-0.4-0.8l2-5.6h13.7l2,5.5c0.1,0.3,0,0.7-0.4,0.8
			c-0.3,0.1-0.7,0-0.8-0.4L56,1.3H44L42.3,6C42.2,6.3,42,6.4,41.7,6.4z"/>
	</g>
	<g>
		<path class="st1" d="M50.1,59.2L25.9,34l0.5-8.3l6.9-16.6l7.9-2.1h17.5l0.1,0l7.8,2.1l6.9,16.6l0.8,8.3L50.1,59.2z M27.2,33.6
			l22.9,23.8L73,33.6l-0.7-7.5l-6.6-15.8l-7.1-1.9H41.4l-7.1,1.9L27.7,26L27.2,33.6z"/>
	</g>
	<g>
		<path class="st1" d="M77,46c-0.3,0-0.5-0.2-0.6-0.5l-2.7-9.3c-0.1-0.3,0.1-0.7,0.4-0.8c0.3-0.1,0.7,0.1,0.8,0.4l2.7,9.3
			c0.1,0.3-0.1,0.7-0.4,0.8C77.2,46,77.1,46,77,46z"/>
	</g>
	<g>
		<path class="st1" d="M91.5,91.5H80.7l-0.2-0.2L51.1,60.4c-0.2-0.3-0.2-0.7,0-0.9c0.3-0.2,0.7-0.2,0.9,0l29.2,30.7h8.6l-5-16.6
			c-0.1-0.3,0.1-0.7,0.4-0.8c0.3-0.1,0.7,0.1,0.8,0.4L91.5,91.5z"/>
	</g>
	<g>
		<path class="st1" d="M19.6,91.5H8.7l5.5-18.4c0.1-0.3,0.5-0.5,0.8-0.4c0.3,0.1,0.5,0.5,0.4,0.8l-5,16.7H19l29.2-30.7
			c0.2-0.3,0.6-0.3,0.9,0c0.3,0.2,0.3,0.6,0,0.9L19.6,91.5z"/>
	</g>
	<g>
		<path class="st1" d="M23.1,46.5c-0.1,0-0.1,0-0.2,0c-0.3-0.1-0.5-0.4-0.4-0.8l2.9-9.8c0.1-0.3,0.4-0.5,0.8-0.4
			c0.3,0.1,0.5,0.4,0.4,0.8l-2.9,9.8C23.6,46.3,23.3,46.5,23.1,46.5z"/>
	</g>
	<g>
		<path class="st0" d="M11.4,56.9"/>
	</g>
	<g>
		<path class="st1" d="M13.8,72.1L8.3,70L7,66.3C6.9,66,7,65.6,7.4,65.5c0.3-0.1,0.7,0.1,0.8,0.4L9.3,69l4.6,1.8l12.5-4.4L23.4,58
			l-5.2-2.9c-0.3-0.2-0.4-0.6-0.2-0.9c0.2-0.3,0.6-0.4,0.9-0.2l5.6,3.1l3.5,10L13.8,72.1z"/>
	</g>
	<g>
		<path class="st1" d="M6.3,65.2L0,62l0.8-25l9.9-11.5l2.8,0.5l0,9.6l5.7,0.7l3.2,12.9l-1.9,3.1l-10.2,3.3L6.3,65.2z M1.3,61.2
			l4.4,2.2l3.6-8.8l10.3-3.3l1.4-2.3l-2.8-11.6l-6-0.7l0-9.7l-1-0.2L2,37.5L1.3,61.2z"/>
	</g>
	<g>
		<path class="st1" d="M86.2,72.1l-14.1-5l3.5-10l5.6-3.1c0.3-0.2,0.7-0.1,0.9,0.2c0.2,0.3,0.1,0.7-0.2,0.9L76.6,58l-2.9,8.4
			l12.5,4.4l4.6-1.8l1.1-3.1c0.1-0.3,0.5-0.5,0.8-0.4c0.3,0.1,0.5,0.5,0.4,0.8L91.7,70L86.2,72.1z"/>
	</g>
	<g>
		<path class="st0" d="M88.6,56.9"/>
	</g>
	<g>
		<path class="st1" d="M93.7,65.2l-3.9-9.5l-10.2-3.3l-1.9-3.1l3.2-12.9l5.7-0.7l0-9.6l2.8-0.5L99.2,37l0.8,25L93.7,65.2z
			 M80.4,51.3l10.3,3.3l3.6,8.8l4.4-2.2L98,37.5l-9.2-10.6l-1,0.2l0,9.7l-6,0.7L79,49.1L80.4,51.3z"/>
	</g>
	<g>
		<circle class="st1" cx="53.7" cy="3.9" r="1.1"/>
	</g>
	<g>
		<circle class="st1" cx="46.3" cy="3.9" r="1.1"/>
	</g>
</g>
</svg>
